<svg width="18" height="18" viewBox="0 0 18 18" fill="none" xmlns="http://www.w3.org/2000/svg">
<path d="M9 1.5C4.86675 1.5 1.5 4.86675 1.5 9C1.5 13.1333 4.86675 16.5 9 16.5C13.1333 16.5 16.5 13.1333 16.5 9C16.5 4.86675 13.1333 1.5 9 1.5ZM9 3C12.3226 3 15 5.67741 15 9C15 12.3226 12.3226 15 9 15C5.67741 15 3 12.3226 3 9C3 5.67741 5.67741 3 9 3Z" fill="#3C1C00"/>
<path d="M9 4.5C8.80109 4.5 8.61032 4.57903 8.46967 4.71968C8.32902 4.86033 8.25 5.05109 8.25 5.25V8.97656C8.25002 9.0754 8.26957 9.17324 8.30753 9.2645C8.34549 9.35575 8.40111 9.43861 8.47119 9.5083L10.7212 11.7437C10.8622 11.8839 11.0532 11.9623 11.2521 11.9618C11.451 11.9612 11.6415 11.8817 11.7817 11.7407C11.922 11.5996 12.0004 11.4086 11.9999 11.2098C11.9993 11.0109 11.9198 10.8204 11.7787 10.6801L9.75 8.66455V5.25C9.75 5.05109 9.67098 4.86033 9.53033 4.71968C9.38968 4.57903 9.19891 4.5 9 4.5Z" fill="#3C1C00"/>
</svg>
