<svg width="21" height="21" viewBox="0 0 21 21" fill="none" xmlns="http://www.w3.org/2000/svg">
<path d="M18.5493 10.5L19.2707 7.4064C19.4358 6.6994 18.6426 6.15747 18.0433 6.56662L15.61 8.23905C15.883 8.49701 16.1373 8.77404 16.3709 9.06805C16.6983 9.47349 16.8769 9.97889 16.8769 10.5C16.8769 11.0212 16.6983 11.5266 16.3709 11.932C16.1372 12.226 15.883 12.503 15.61 12.761L18.0433 14.4334C18.6426 14.8425 19.4357 14.3006 19.2707 13.5936L18.5493 10.5Z" fill="white"/>
<path d="M7.42023 15.4778C7.82842 16.0412 8.39169 16.4737 9.04138 16.7226C9.69108 16.9715 10.3991 17.0261 11.0793 16.8796C11.7595 16.7332 12.3823 16.392 12.872 15.8978C13.3617 15.4036 13.697 14.7776 13.8372 14.0961C12.2616 15.0148 10.3811 15.5244 8.42512 15.5244C8.08779 15.5244 7.75046 15.5101 7.42023 15.4778Z" fill="white"/>
<path d="M13.8372 6.90401C13.697 6.22252 13.3617 5.5965 12.872 5.10225C12.3824 4.608 11.7595 4.26686 11.0793 4.1204C10.3992 3.97394 9.69109 4.02849 9.04139 4.2774C8.39169 4.52631 7.82842 4.95883 7.42023 5.52225C7.75046 5.48997 8.08779 5.47559 8.42511 5.47559C10.3811 5.47559 12.2616 5.98524 13.8372 6.90401Z" fill="white"/>
<path d="M15.5312 9.74077C13.9919 7.8188 11.386 6.55258 8.4239 6.55258C5.69878 6.55258 3.27621 7.6249 1.70721 9.29294L3.10342 10.5003L1.70721 11.7078C3.27612 13.3758 5.69878 14.4481 8.4239 14.4481C11.3861 14.4481 13.9919 13.1819 15.5312 11.26C15.7044 11.0447 15.7988 10.7767 15.7988 10.5004C15.7988 10.2241 15.7044 9.95607 15.5312 9.74077ZM5.29608 10.1414C5.15412 10.1414 5.01535 10.0994 4.89731 10.0205C4.77927 9.94161 4.68727 9.82951 4.63295 9.69836C4.57862 9.5672 4.5644 9.42288 4.5921 9.28364C4.6198 9.14441 4.68816 9.01652 4.78854 8.91613C4.88892 8.81575 5.01682 8.74739 5.15605 8.71969C5.29529 8.692 5.43961 8.70621 5.57076 8.76054C5.70192 8.81487 5.81402 8.90686 5.89289 9.0249C5.97176 9.14294 6.01386 9.28171 6.01386 9.42368C6.01386 9.51794 5.9953 9.61127 5.95923 9.69836C5.92316 9.78545 5.87029 9.86458 5.80363 9.93123C5.73698 9.99788 5.65785 10.0508 5.57077 10.0868C5.48368 10.1229 5.39034 10.1415 5.29608 10.1414ZM7.93831 12.4177C7.85794 12.5355 7.73413 12.6166 7.59405 12.6432C7.45398 12.6698 7.30906 12.6397 7.1911 12.5596C7.07314 12.4796 6.99176 12.3559 6.96482 12.2159C6.93789 12.0759 6.96758 11.9309 7.0474 11.8128C7.30283 11.4226 7.43888 10.9665 7.43888 10.5002C7.43888 10.0338 7.30283 9.57767 7.0474 9.18754C7.0077 9.12904 6.97992 9.06329 6.96563 8.99406C6.95134 8.92482 6.95083 8.85345 6.96412 8.78402C6.97742 8.71458 7.00426 8.64845 7.04311 8.58938C7.08196 8.53032 7.13207 8.47949 7.19057 8.4398C7.24907 8.4001 7.31481 8.37231 7.38405 8.35803C7.45328 8.34374 7.52466 8.34323 7.59409 8.35652C7.66352 8.36981 7.72966 8.39665 7.78872 8.43551C7.84778 8.47436 7.89861 8.52447 7.93831 8.58297C8.31479 9.15156 8.51554 9.8184 8.51554 10.5003C8.51554 11.1823 8.31479 11.8491 7.93831 12.4177Z" fill="white"/>
</svg>
