<svg width="13" height="13" viewBox="0 0 13 13" fill="none" xmlns="http://www.w3.org/2000/svg">
<path d="M9.45796 5.87541L4.58276 1.81273C4.41702 1.67564 4.20372 1.60981 3.98956 1.62966C3.77539 1.64951 3.57782 1.75342 3.44011 1.91863C3.30239 2.08385 3.23576 2.2969 3.2548 2.51114C3.27384 2.72538 3.37701 2.92334 3.5417 3.06168L7.66785 6.49991L3.5417 9.93814C3.37637 10.0763 3.27264 10.2744 3.25329 10.489C3.23394 10.7035 3.30055 10.917 3.4385 11.0825C3.57644 11.248 3.77443 11.352 3.98899 11.3716C4.20354 11.3912 4.4171 11.3248 4.58276 11.1871L9.45796 7.12435C9.54937 7.04798 9.62291 6.95247 9.67336 6.84457C9.72382 6.73666 9.74997 6.619 9.74997 6.49988C9.74997 6.38076 9.72382 6.2631 9.67336 6.15519C9.62291 6.04729 9.54937 5.95178 9.45796 5.87541Z" fill="#3C1C00"/>
</svg>
